<?xml version="1.0" encoding="UTF-8" standalone="no"?><svg xmlns="http://www.w3.org/2000/svg" xmlns:xlink="http://www.w3.org/1999/xlink" contentScriptType="application/ecmascript" contentStyleType="text/css" height="1908px" preserveAspectRatio="none" style="width:503px;height:1908px;" version="1.1" viewBox="0 0 503 1908" width="503px" zoomAndPan="magnify"><defs/><g><text fill="#000000" font-family="sans-serif" font-size="18" lengthAdjust="spacingAndGlyphs" textLength="408" x="46.5" y="29.2419">PALogic - NN Pipeline (CPU &lt;-&gt; GPU) + Evolution</text><ellipse cx="251" cy="44.5158" fill="#000000" rx="10" ry="10" style="stroke: none; stroke-width: 1.0;"/><rect fill="#FFFFFF" height="329.1326" rx="5" ry="5" style="stroke: #000000; stroke-width: 2.0;" width="482" x="10" y="66.1178"/><path d="M138,67.1178 L138,78.1857 L128,88.1857 L10,88.1857 " fill="none" style="stroke: #000000; stroke-width: 2.0;"/><text fill="#000000" font-family="sans-serif" font-size="14" lengthAdjust="spacingAndGlyphs" textLength="118" x="13" y="82.0838">CPU (Java) - Setup</text><rect fill="#FFFFFF" height="36.3441" rx="12.5" ry="12.5" style="stroke: #000000; stroke-width: 1.5;" width="322" x="90" y="105.1857"/><text fill="#000000" font-family="sans-serif" font-size="12" lengthAdjust="spacingAndGlyphs" textLength="302" x="100" y="128.0138">Build NNStructure (inputs=5, hidden=1/1/1, outputs=1)</text><rect fill="#FFFFFF" height="36.3441" rx="12.5" ry="12.5" style="stroke: #000000; stroke-width: 1.5;" width="462" x="20" y="161.5299"/><text fill="#000000" font-family="sans-serif" font-size="12" lengthAdjust="spacingAndGlyphs" textLength="442" x="30" y="184.3579">Allocate GPU buffers (weights, biases, input, output, physics, grade, transforms)</text><rect fill="#FFFFFF" height="52.6882" rx="12.5" ry="12.5" style="stroke: #000000; stroke-width: 1.5;" width="212" x="145" y="217.874"/><text fill="#000000" font-family="sans-serif" font-size="12" lengthAdjust="spacingAndGlyphs" textLength="109" x="155" y="240.7021">Initialize population</text><text fill="#000000" font-family="sans-serif" font-size="12" lengthAdjust="spacingAndGlyphs" textLength="192" x="155" y="257.0462">(random or reload latest top JSON)</text><rect fill="#FFFFFF" height="36.3441" rx="12.5" ry="12.5" style="stroke: #000000; stroke-width: 1.5;" width="188" x="157" y="290.5622"/><text fill="#000000" font-family="sans-serif" font-size="12" lengthAdjust="spacingAndGlyphs" textLength="168" x="167" y="313.3903">Upload weights/biases to GPU</text><rect fill="#FFFFFF" height="36.3441" rx="12.5" ry="12.5" style="stroke: #000000; stroke-width: 1.5;" width="217" x="142.5" y="346.9063"/><text fill="#000000" font-family="sans-serif" font-size="12" lengthAdjust="spacingAndGlyphs" textLength="197" x="152.5" y="369.7344">Reset physics state and clear grade</text><rect fill="#FFFFFF" height="411.5414" rx="5" ry="5" style="stroke: #000000; stroke-width: 2.0;" width="249" x="138.5" y="406.8524"/><path d="M377.5,407.8524 L377.5,418.9203 L367.5,428.9203 L138.5,428.9203 " fill="none" style="stroke: #000000; stroke-width: 2.0;"/><text fill="#000000" font-family="sans-serif" font-size="14" lengthAdjust="spacingAndGlyphs" textLength="229" x="141.5" y="422.8183">GPU - Per Step (Compute Shaders)</text><rect fill="#FFFFFF" height="118.0647" rx="12.5" ry="12.5" style="stroke: #000000; stroke-width: 1.5;" width="144" x="179" y="489.9203"/><text fill="#000000" font-family="sans-serif" font-size="12" lengthAdjust="spacingAndGlyphs" textLength="96" x="189" y="512.7484">NN Forward Pass</text><text fill="#000000" font-family="sans-serif" font-size="12" lengthAdjust="spacingAndGlyphs" textLength="110" x="189" y="529.0925">(nn_compute.comp)</text><text fill="#000000" font-family="sans-serif" font-size="12" lengthAdjust="spacingAndGlyphs" textLength="66" x="189" y="545.4366">- Read input</text><text fill="#000000" font-family="sans-serif" font-size="12" lengthAdjust="spacingAndGlyphs" textLength="124" x="189" y="561.7808">- Read weights+biases</text><text fill="#000000" font-family="sans-serif" font-size="12" lengthAdjust="spacingAndGlyphs" textLength="82" x="189" y="578.1249">- Forward pass</text><text fill="#000000" font-family="sans-serif" font-size="12" lengthAdjust="spacingAndGlyphs" textLength="76" x="189" y="594.469">- Write output</text><rect fill="#FFFFFF" height="134.4088" rx="12.5" ry="12.5" style="stroke: #000000; stroke-width: 1.5;" width="186" x="158" y="627.985"/><text fill="#000000" font-family="sans-serif" font-size="12" lengthAdjust="spacingAndGlyphs" textLength="166" x="168" y="650.8131">Physics + Grade + Next Inputs</text><text fill="#000000" font-family="sans-serif" font-size="12" lengthAdjust="spacingAndGlyphs" textLength="129" x="168" y="667.1572">(nn_postprocess.comp)</text><text fill="#000000" font-family="sans-serif" font-size="12" lengthAdjust="spacingAndGlyphs" textLength="74" x="168" y="683.5013">- Read output</text><text fill="#000000" font-family="sans-serif" font-size="12" lengthAdjust="spacingAndGlyphs" textLength="92" x="168" y="699.8454">- Update physics</text><text fill="#000000" font-family="sans-serif" font-size="12" lengthAdjust="spacingAndGlyphs" textLength="113" x="168" y="716.1896">- Add fitness (grade)</text><text fill="#000000" font-family="sans-serif" font-size="12" lengthAdjust="spacingAndGlyphs" textLength="101" x="168" y="732.5337">- Write next inputs</text><text fill="#000000" font-family="sans-serif" font-size="12" lengthAdjust="spacingAndGlyphs" textLength="102" x="168" y="748.8778">- Write transforms</text><polygon fill="#FEFECE" points="251,445.9203,263,457.9203,251,469.9203,239,457.9203,251,445.9203" style="stroke: #A80036; stroke-width: 1.5;"/><polygon fill="#FEFECE" points="174.5,782.3938,327.5,782.3938,339.5,794.3938,327.5,806.3938,174.5,806.3938,162.5,794.3938,174.5,782.3938" style="stroke: #A80036; stroke-width: 1.5;"/><text fill="#000000" font-family="sans-serif" font-size="11" lengthAdjust="spacingAndGlyphs" textLength="153" x="174.5" y="798.6618">iteration &lt; MAX_ITERATIONS?</text><text fill="#000000" font-family="sans-serif" font-size="11" lengthAdjust="spacingAndGlyphs" textLength="17" x="339.5" y="791.1708">yes</text><rect fill="#FFFFFF" height="305.4767" rx="5" ry="5" style="stroke: #000000; stroke-width: 2.0;" width="199" x="151.5" y="829.9958"/><path d="M340.5,830.9958 L340.5,842.0637 L330.5,852.0637 L151.5,852.0637 " fill="none" style="stroke: #000000; stroke-width: 2.0;"/><text fill="#000000" font-family="sans-serif" font-size="14" lengthAdjust="spacingAndGlyphs" textLength="179" x="154.5" y="845.9617">CPU (Java) - End of Episode</text><rect fill="#FFFFFF" height="36.3441" rx="12.5" ry="12.5" style="stroke: #000000; stroke-width: 1.5;" width="150" x="176" y="869.0637"/><text fill="#000000" font-family="sans-serif" font-size="12" lengthAdjust="spacingAndGlyphs" textLength="130" x="186" y="891.8918">Read back grade buffer</text><rect fill="#FFFFFF" height="52.6882" rx="12.5" ry="12.5" style="stroke: #000000; stroke-width: 1.5;" width="121" x="190.5" y="925.4078"/><text fill="#000000" font-family="sans-serif" font-size="12" lengthAdjust="spacingAndGlyphs" textLength="101" x="200.5" y="948.2359">Select TOP agents</text><text fill="#000000" font-family="sans-serif" font-size="12" lengthAdjust="spacingAndGlyphs" textLength="90" x="200.5" y="964.58">(getMaxIndices)</text><rect fill="#FFFFFF" height="52.6882" rx="12.5" ry="12.5" style="stroke: #000000; stroke-width: 1.5;" width="163" x="169.5" y="998.0961"/><text fill="#000000" font-family="sans-serif" font-size="12" lengthAdjust="spacingAndGlyphs" textLength="143" x="179.5" y="1020.9241">Read back weights/biases</text><text fill="#000000" font-family="sans-serif" font-size="12" lengthAdjust="spacingAndGlyphs" textLength="107" x="179.5" y="1037.2683">for selected agents</text><rect fill="#FFFFFF" height="52.6882" rx="12.5" ry="12.5" style="stroke: #000000; stroke-width: 1.5;" width="154" x="174" y="1070.7843"/><text fill="#000000" font-family="sans-serif" font-size="12" lengthAdjust="spacingAndGlyphs" textLength="134" x="184" y="1093.6124">Save top agents to JSON</text><text fill="#000000" font-family="sans-serif" font-size="12" lengthAdjust="spacingAndGlyphs" textLength="90" x="184" y="1109.9565">(top.XXXXX.json)</text><rect fill="#FFFFFF" height="592.931" rx="5" ry="5" style="stroke: #000000; stroke-width: 2.0;" width="286" x="106.5" y="1147.0745"/><path d="M257.5,1148.0745 L257.5,1159.1424 L247.5,1169.1424 L106.5,1169.1424 " fill="none" style="stroke: #000000; stroke-width: 2.0;"/><text fill="#000000" font-family="sans-serif" font-size="14" lengthAdjust="spacingAndGlyphs" textLength="141" x="109.5" y="1163.0404">CPU (Java) - Evolution</text><rect fill="#FFFFFF" height="36.3441" rx="12.5" ry="12.5" style="stroke: #000000; stroke-width: 1.5;" width="146" x="178" y="1186.1424"/><text fill="#000000" font-family="sans-serif" font-size="12" lengthAdjust="spacingAndGlyphs" textLength="126" x="188" y="1208.9705">Create new population</text><rect fill="#FFFFFF" height="36.3441" rx="12.5" ry="12.5" style="stroke: #000000; stroke-width: 1.5;" width="172" x="165" y="1299.7454"/><text fill="#000000" font-family="sans-serif" font-size="12" lengthAdjust="spacingAndGlyphs" textLength="152" x="175" y="1322.5735">Pick parents from survivors</text><rect fill="#FFFFFF" height="52.6882" rx="12.5" ry="12.5" style="stroke: #000000; stroke-width: 1.5;" width="221" x="140.5" y="1356.0896"/><text fill="#000000" font-family="sans-serif" font-size="12" lengthAdjust="spacingAndGlyphs" textLength="57" x="150.5" y="1378.9176">Crossover</text><text fill="#000000" font-family="sans-serif" font-size="12" lengthAdjust="spacingAndGlyphs" textLength="201" x="150.5" y="1395.2618">(gene-wise choose from parent A/B)</text><rect fill="#FFFFFF" height="101.7206" rx="12.5" ry="12.5" style="stroke: #000000; stroke-width: 1.5;" width="197" x="152.5" y="1435.2526"/><text fill="#000000" font-family="sans-serif" font-size="12" lengthAdjust="spacingAndGlyphs" textLength="50" x="162.5" y="1458.0806">Mutation</text><text fill="#000000" font-family="sans-serif" font-size="12" lengthAdjust="spacingAndGlyphs" textLength="91" x="162.5" y="1474.4248">(gaussian noise)</text><text fill="#000000" font-family="sans-serif" font-size="12" lengthAdjust="spacingAndGlyphs" textLength="120" x="162.5" y="1490.7689">- rate=MUTATE_RATE</text><text fill="#000000" font-family="sans-serif" font-size="12" lengthAdjust="spacingAndGlyphs" textLength="177" x="162.5" y="1507.113">- strength=MUTATE_STRENGTH</text><text fill="#000000" font-family="sans-serif" font-size="12" lengthAdjust="spacingAndGlyphs" textLength="96" x="162.5" y="1523.4571">- clamp if needed</text><rect fill="#FFFFFF" height="36.3441" rx="12.5" ry="12.5" style="stroke: #000000; stroke-width: 1.5;" width="147" x="177.5" y="1556.9731"/><text fill="#000000" font-family="sans-serif" font-size="12" lengthAdjust="spacingAndGlyphs" textLength="127" x="187.5" y="1579.8012">Add child to population</text><polygon fill="#FEFECE" points="199,1242.4865,303,1242.4865,315,1254.4865,303,1266.4865,199,1266.4865,187,1254.4865,199,1242.4865" style="stroke: #A80036; stroke-width: 1.5;"/><text fill="#000000" font-family="sans-serif" font-size="11" lengthAdjust="spacingAndGlyphs" textLength="17" x="255" y="1278.2454">yes</text><text fill="#000000" font-family="sans-serif" font-size="11" lengthAdjust="spacingAndGlyphs" textLength="104" x="199" y="1258.7545">population not full?</text><text fill="#000000" font-family="sans-serif" font-size="11" lengthAdjust="spacingAndGlyphs" textLength="14" x="173" y="1251.2636">no</text><rect fill="#FFFFFF" height="36.3441" rx="12.5" ry="12.5" style="stroke: #000000; stroke-width: 1.5;" width="214" x="144" y="1635.3172"/><text fill="#000000" font-family="sans-serif" font-size="12" lengthAdjust="spacingAndGlyphs" textLength="194" x="154" y="1658.1453">Upload new weights/biases to GPU</text><rect fill="#FFFFFF" height="36.3441" rx="12.5" ry="12.5" style="stroke: #000000; stroke-width: 1.5;" width="217" x="142.5" y="1691.6614"/><text fill="#000000" font-family="sans-serif" font-size="12" lengthAdjust="spacingAndGlyphs" textLength="197" x="152.5" y="1714.4894">Reset physics state and clear grade</text><rect fill="#FFFFFF" height="103.7561" rx="5" ry="5" style="stroke: #000000; stroke-width: 2.0;" width="229" x="136.5" y="1751.6075"/><path d="M355.5,1752.6075 L355.5,1763.6754 L345.5,1773.6754 L136.5,1773.6754 " fill="none" style="stroke: #000000; stroke-width: 2.0;"/><text fill="#000000" font-family="sans-serif" font-size="14" lengthAdjust="spacingAndGlyphs" textLength="209" x="139.5" y="1767.5734">GPU - Resume Next Generation</text><rect fill="#FFFFFF" height="52.6882" rx="12.5" ry="12.5" style="stroke: #000000; stroke-width: 1.5;" width="180" x="161" y="1790.6754"/><text fill="#000000" font-family="sans-serif" font-size="12" lengthAdjust="spacingAndGlyphs" textLength="119" x="171" y="1813.5035">Postprocess one step</text><text fill="#000000" font-family="sans-serif" font-size="12" lengthAdjust="spacingAndGlyphs" textLength="160" x="171" y="1829.8476">(to seed inputs from physics)</text><ellipse cx="251" cy="1886.3636" fill="#FFFFFF" rx="11" ry="11" style="stroke: #000000; stroke-width: 1.0;"/><ellipse cx="251" cy="1886.3636" fill="#000000" rx="6" ry="6" style="stroke: #7F7F7F; stroke-width: 1.0;"/><line style="stroke: #000000; stroke-width: 1.5;" x1="251" x2="251" y1="141.5299" y2="161.5299"/><polygon fill="#000000" points="247,151.5299,251,161.5299,255,151.5299,251,155.5299" style="stroke: #000000; stroke-width: 1.0;"/><line style="stroke: #000000; stroke-width: 1.5;" x1="251" x2="251" y1="197.874" y2="217.874"/><polygon fill="#000000" points="247,207.874,251,217.874,255,207.874,251,211.874" style="stroke: #000000; stroke-width: 1.0;"/><line style="stroke: #000000; stroke-width: 1.5;" x1="251" x2="251" y1="270.5622" y2="290.5622"/><polygon fill="#000000" points="247,280.5622,251,290.5622,255,280.5622,251,284.5622" style="stroke: #000000; stroke-width: 1.0;"/><line style="stroke: #000000; stroke-width: 1.5;" x1="251" x2="251" y1="326.9063" y2="346.9063"/><polygon fill="#000000" points="247,336.9063,251,346.9063,255,336.9063,251,340.9063" style="stroke: #000000; stroke-width: 1.0;"/><line style="stroke: #000000; stroke-width: 1.5;" x1="251" x2="251" y1="54.5158" y2="105.1857"/><polygon fill="#000000" points="247,95.1857,251,105.1857,255,95.1857,251,99.1857" style="stroke: #000000; stroke-width: 1.0;"/><line style="stroke: #000000; stroke-width: 1.5;" x1="251" x2="251" y1="607.985" y2="627.985"/><polygon fill="#000000" points="247,617.985,251,627.985,255,617.985,251,621.985" style="stroke: #000000; stroke-width: 1.0;"/><line style="stroke: #000000; stroke-width: 1.5;" x1="251" x2="251" y1="469.9203" y2="489.9203"/><polygon fill="#000000" points="247,479.9203,251,489.9203,255,479.9203,251,483.9203" style="stroke: #000000; stroke-width: 1.0;"/><line style="stroke: #000000; stroke-width: 1.5;" x1="339.5" x2="356" y1="794.3938" y2="794.3938"/><polygon fill="#000000" points="352,628.6571,356,618.6571,360,628.6571,356,624.6571" style="stroke: #000000; stroke-width: 1.5;"/><line style="stroke: #000000; stroke-width: 1.5;" x1="356" x2="356" y1="457.9203" y2="794.3938"/><line style="stroke: #000000; stroke-width: 1.5;" x1="356" x2="263" y1="457.9203" y2="457.9203"/><polygon fill="#000000" points="273,453.9203,263,457.9203,273,461.9203,269,457.9203" style="stroke: #000000; stroke-width: 1.0;"/><line style="stroke: #000000; stroke-width: 1.5;" x1="251" x2="251" y1="762.3938" y2="782.3938"/><polygon fill="#000000" points="247,772.3938,251,782.3938,255,772.3938,251,776.3938" style="stroke: #000000; stroke-width: 1.0;"/><line style="stroke: #000000; stroke-width: 1.5;" x1="251" x2="251" y1="383.2504" y2="445.9203"/><polygon fill="#000000" points="247,435.9203,251,445.9203,255,435.9203,251,439.9203" style="stroke: #000000; stroke-width: 1.0;"/><line style="stroke: #000000; stroke-width: 1.5;" x1="251" x2="251" y1="905.4078" y2="925.4078"/><polygon fill="#000000" points="247,915.4078,251,925.4078,255,915.4078,251,919.4078" style="stroke: #000000; stroke-width: 1.0;"/><line style="stroke: #000000; stroke-width: 1.5;" x1="251" x2="251" y1="978.0961" y2="998.0961"/><polygon fill="#000000" points="247,988.0961,251,998.0961,255,988.0961,251,992.0961" style="stroke: #000000; stroke-width: 1.0;"/><line style="stroke: #000000; stroke-width: 1.5;" x1="251" x2="251" y1="1050.7843" y2="1070.7843"/><polygon fill="#000000" points="247,1060.7843,251,1070.7843,255,1060.7843,251,1064.7843" style="stroke: #000000; stroke-width: 1.0;"/><line style="stroke: #000000; stroke-width: 1.5;" x1="251" x2="251" y1="806.3938" y2="869.0637"/><polygon fill="#000000" points="247,859.0637,251,869.0637,255,859.0637,251,863.0637" style="stroke: #000000; stroke-width: 1.0;"/><line style="stroke: #000000; stroke-width: 1.5;" x1="251" x2="251" y1="1336.0896" y2="1356.0896"/><polygon fill="#000000" points="247,1346.0896,251,1356.0896,255,1346.0896,251,1350.0896" style="stroke: #000000; stroke-width: 1.0;"/><line style="stroke: #000000; stroke-width: 1.5;" x1="251" x2="251" y1="1408.7778" y2="1435.2526"/><polygon fill="#000000" points="247,1425.2526,251,1435.2526,255,1425.2526,251,1429.2526" style="stroke: #000000; stroke-width: 1.0;"/><line style="stroke: #000000; stroke-width: 1.5;" x1="251" x2="251" y1="1536.9731" y2="1556.9731"/><polygon fill="#000000" points="247,1546.9731,251,1556.9731,255,1546.9731,251,1550.9731" style="stroke: #000000; stroke-width: 1.0;"/><line style="stroke: #000000; stroke-width: 1.5;" x1="251" x2="251" y1="1266.4865" y2="1299.7454"/><polygon fill="#000000" points="247,1289.7454,251,1299.7454,255,1289.7454,251,1293.7454" style="stroke: #000000; stroke-width: 1.0;"/><line style="stroke: #000000; stroke-width: 1.5;" x1="251" x2="251" y1="1593.3172" y2="1603.3172"/><line style="stroke: #000000; stroke-width: 1.5;" x1="251" x2="373.5" y1="1603.3172" y2="1603.3172"/><polygon fill="#000000" points="369.5,1432.7778,373.5,1422.7778,377.5,1432.7778,373.5,1428.7778" style="stroke: #000000; stroke-width: 1.5;"/><line style="stroke: #000000; stroke-width: 1.5;" x1="373.5" x2="373.5" y1="1254.4865" y2="1603.3172"/><line style="stroke: #000000; stroke-width: 1.5;" x1="373.5" x2="315" y1="1254.4865" y2="1254.4865"/><polygon fill="#000000" points="325,1250.4865,315,1254.4865,325,1258.4865,321,1254.4865" style="stroke: #000000; stroke-width: 1.0;"/><line style="stroke: #000000; stroke-width: 1.5;" x1="187" x2="128.5" y1="1254.4865" y2="1254.4865"/><polygon fill="#000000" points="124.5,1418.7778,128.5,1428.7778,132.5,1418.7778,128.5,1422.7778" style="stroke: #000000; stroke-width: 1.5;"/><line style="stroke: #000000; stroke-width: 1.5;" x1="128.5" x2="128.5" y1="1254.4865" y2="1615.3172"/><line style="stroke: #000000; stroke-width: 1.5;" x1="128.5" x2="251" y1="1615.3172" y2="1615.3172"/><line style="stroke: #000000; stroke-width: 1.5;" x1="251" x2="251" y1="1615.3172" y2="1635.3172"/><polygon fill="#000000" points="247,1625.3172,251,1635.3172,255,1625.3172,251,1629.3172" style="stroke: #000000; stroke-width: 1.0;"/><line style="stroke: #000000; stroke-width: 1.5;" x1="251" x2="251" y1="1222.4865" y2="1242.4865"/><polygon fill="#000000" points="247,1232.4865,251,1242.4865,255,1232.4865,251,1236.4865" style="stroke: #000000; stroke-width: 1.0;"/><line style="stroke: #000000; stroke-width: 1.5;" x1="251" x2="251" y1="1671.6614" y2="1691.6614"/><polygon fill="#000000" points="247,1681.6614,251,1691.6614,255,1681.6614,251,1685.6614" style="stroke: #000000; stroke-width: 1.0;"/><line style="stroke: #000000; stroke-width: 1.5;" x1="251" x2="251" y1="1123.4725" y2="1186.1424"/><polygon fill="#000000" points="247,1176.1424,251,1186.1424,255,1176.1424,251,1180.1424" style="stroke: #000000; stroke-width: 1.0;"/><line style="stroke: #000000; stroke-width: 1.5;" x1="251" x2="251" y1="1728.0055" y2="1790.6754"/><polygon fill="#000000" points="247,1780.6754,251,1790.6754,255,1780.6754,251,1784.6754" style="stroke: #000000; stroke-width: 1.0;"/><line style="stroke: #000000; stroke-width: 1.5;" x1="251" x2="251" y1="1843.3636" y2="1875.3636"/><polygon fill="#000000" points="247,1865.3636,251,1875.3636,255,1865.3636,251,1869.3636" style="stroke: #000000; stroke-width: 1.0;"/><!--MD5=[964933385434611a239a669c73307b67]
@startuml
title PALogic - NN Pipeline (CPU <-> GPU) + Evolution

skinparam backgroundColor white
skinparam shadowing false
skinparam roundcorner 10
skinparam ArrowColor black
skinparam activity {
  BorderColor black
  BackgroundColor white
  FontColor black
}
skinparam note {
  BorderColor black
  BackgroundColor white
}

start

partition "CPU (Java) - Setup" {
  :Build NNStructure (inputs=5, hidden=1/1/1, outputs=1);
  :Allocate GPU buffers (weights, biases, input, output, physics, grade, transforms);
  :Initialize population\n(random or reload latest top JSON);
  :Upload weights/biases to GPU;
  :Reset physics state and clear grade;
}

partition "GPU - Per Step (Compute Shaders)" {
  repeat
    :NN Forward Pass\n(nn_compute.comp)\n- Read input\n- Read weights+biases\n- Forward pass\n- Write output;
    :Physics + Grade + Next Inputs\n(nn_postprocess.comp)\n- Read output\n- Update physics\n- Add fitness (grade)\n- Write next inputs\n- Write transforms;
  repeat while (iteration < MAX_ITERATIONS?) is (yes)
}

partition "CPU (Java) - End of Episode" {
  :Read back grade buffer;
  :Select TOP agents\n(getMaxIndices);
  :Read back weights/biases\nfor selected agents;
  :Save top agents to JSON\n(top.XXXXX.json);
}

partition "CPU (Java) - Evolution" {
  :Create new population;
  while (population not full?) is (yes)
    :Pick parents from survivors;
    :Crossover\n(gene-wise choose from parent A/B);
    :Mutation\n(gaussian noise)\n- rate=MUTATE_RATE\n- strength=MUTATE_STRENGTH\n- clamp if needed;
    :Add child to population;
  endwhile (no)
  :Upload new weights/biases to GPU;
  :Reset physics state and clear grade;
}

partition "GPU - Resume Next Generation" {
  :Postprocess one step\n(to seed inputs from physics);
}

stop

@enduml

PlantUML version 1.2020.02(Sun Mar 01 11:22:07 CET 2020)
(GPL source distribution)
Java Runtime: OpenJDK Runtime Environment
JVM: OpenJDK 64-Bit Server VM
Java Version: 21.0.10+7-Ubuntu-124.04
Operating System: Linux
Default Encoding: UTF-8
Language: en
Country: US
--></g></svg>