# Blender 5.0.0
# www.blender.org
mtllib pendulum.mtl
o Circle
v -0.000000 0.000000 -0.127416
v -0.024858 0.000000 -0.124968
v -0.048760 0.000000 -0.117717
v -0.070789 0.000000 -0.105943
v -0.090097 0.000000 -0.090097
v -0.105943 0.000000 -0.070789
v -0.117717 0.000000 -0.048760
v -0.124968 0.000000 -0.024858
v -0.127416 0.000000 -0.000000
v -0.124968 0.000000 0.024858
v -0.117717 0.000000 0.048760
v -0.105943 0.000000 0.070789
v -0.090097 0.000000 0.090097
v -0.070789 0.000000 0.105943
v -0.048760 0.000000 0.117717
v -0.024858 0.000000 0.124968
v -0.000000 0.000000 0.127416
v 0.024858 0.000000 0.124968
v 0.048760 0.000000 0.117717
v 0.070789 0.000000 0.105943
v 0.090097 0.000000 0.090097
v 0.105943 0.000000 0.070789
v 0.117717 0.000000 0.048760
v 0.124968 0.000000 0.024858
v 0.127416 0.000000 -0.000000
v 0.124968 0.000000 -0.024858
v 0.117717 0.000000 -0.048760
v 0.105943 0.000000 -0.070789
v 0.090097 0.000000 -0.090097
v 0.070789 0.000000 -0.105943
v 0.048760 0.000000 -0.117717
v 0.024858 0.000000 -0.124968
v -0.052464 -0.042607 0.000000
v 0.052464 -0.042607 0.000000
v -0.052464 -0.042607 -1.000000
v 0.052464 -0.042607 -1.000000
v -0.000000 0.000000 -1.254833
v -0.049715 0.000000 -1.249936
v -0.097520 0.000000 -1.235435
v -0.141577 0.000000 -1.211885
v -0.180194 0.000000 -1.180194
v -0.211885 0.000000 -1.141577
v -0.235435 0.000000 -1.097520
v -0.249936 0.000000 -1.049715
v -0.254833 0.000000 -1.000000
v -0.249936 0.000000 -0.950285
v -0.235435 0.000000 -0.902480
v -0.211885 0.000000 -0.858423
v -0.180194 0.000000 -0.819806
v -0.141577 0.000000 -0.788115
v -0.097520 0.000000 -0.764566
v -0.049715 0.000000 -0.750064
v -0.000000 0.000000 -0.745168
v 0.049715 0.000000 -0.750064
v 0.097520 0.000000 -0.764566
v 0.141577 0.000000 -0.788115
v 0.180194 0.000000 -0.819806
v 0.211885 0.000000 -0.858423
v 0.235434 0.000000 -0.902480
v 0.249936 0.000000 -0.950285
v 0.254832 0.000000 -1.000000
v 0.249936 0.000000 -1.049715
v 0.235434 0.000000 -1.097520
v 0.211885 0.000000 -1.141577
v 0.180194 0.000000 -1.180194
v 0.141577 0.000000 -1.211885
v 0.097520 0.000000 -1.235435
v 0.049715 0.000000 -1.249936
v -0.000000 -0.027885 -0.127416
v -0.024858 -0.027885 -0.124968
v -0.048760 -0.027885 -0.117717
v -0.070789 -0.027885 -0.105943
v -0.090097 -0.027885 -0.090097
v -0.105943 -0.027885 -0.070789
v -0.117717 -0.027885 -0.048760
v -0.124968 -0.027885 -0.024858
v -0.127416 -0.027885 -0.000000
v -0.124968 -0.027885 0.024858
v -0.117717 -0.027885 0.048760
v -0.105943 -0.027885 0.070789
v -0.090097 -0.027885 0.090097
v -0.070789 -0.027885 0.105943
v -0.048760 -0.027885 0.117717
v -0.024858 -0.027885 0.124968
v -0.000000 -0.027885 0.127416
v 0.024858 -0.027885 0.124968
v 0.048760 -0.027885 0.117717
v 0.070789 -0.027885 0.105943
v 0.090097 -0.027885 0.090097
v 0.105943 -0.027885 0.070789
v 0.117717 -0.027885 0.048760
v 0.124968 -0.027885 0.024858
v 0.127416 -0.027885 -0.000000
v 0.124968 -0.027885 -0.024858
v 0.117717 -0.027885 -0.048760
v 0.105943 -0.027885 -0.070789
v 0.090097 -0.027885 -0.090097
v 0.070789 -0.027885 -0.105943
v 0.048760 -0.027885 -0.117717
v 0.024858 -0.027885 -0.124968
v -0.052464 -0.070492 0.000000
v 0.052464 -0.070492 0.000000
v -0.052464 -0.070492 -1.000000
v 0.052464 -0.070492 -1.000000
v -0.000000 -0.027885 -1.254833
v -0.049715 -0.027885 -1.249936
v -0.097520 -0.027885 -1.235435
v -0.141577 -0.027885 -1.211885
v -0.180194 -0.027885 -1.180194
v -0.211885 -0.027885 -1.141577
v -0.235435 -0.027885 -1.097520
v -0.249936 -0.027885 -1.049715
v -0.254833 -0.027885 -1.000000
v -0.249936 -0.027885 -0.950285
v -0.235435 -0.027885 -0.902480
v -0.211885 -0.027885 -0.858423
v -0.180194 -0.027885 -0.819806
v -0.141577 -0.027885 -0.788115
v -0.097520 -0.027885 -0.764566
v -0.049715 -0.027885 -0.750064
v -0.000000 -0.027885 -0.745168
v 0.049715 -0.027885 -0.750064
v 0.097520 -0.027885 -0.764566
v 0.141577 -0.027885 -0.788115
v 0.180194 -0.027885 -0.819806
v 0.211885 -0.027885 -0.858423
v 0.235434 -0.027885 -0.902480
v 0.249936 -0.027885 -0.950285
v 0.254832 -0.027885 -1.000000
v 0.249936 -0.027885 -1.049715
v 0.235434 -0.027885 -1.097520
v 0.211885 -0.027885 -1.141577
v 0.180194 -0.027885 -1.180194
v 0.141577 -0.027885 -1.211885
v 0.097520 -0.027885 -1.235435
v 0.049715 -0.027885 -1.249936
vn -0.0000 1.0000 -0.0000
vn -0.0000 -1.0000 -0.0000
vn -0.7730 -0.0000 -0.6344
vn 0.8819 -0.0000 0.4714
vn 0.0980 -0.0000 -0.9952
vn -0.8819 -0.0000 -0.4714
vn 0.9569 -0.0000 0.2903
vn -1.0000 -0.0000 -0.0000
vn -0.9569 -0.0000 -0.2903
vn 0.9952 -0.0000 0.0980
vn -0.0000 -0.0000 1.0000
vn -0.9952 -0.0000 -0.0980
vn 0.9952 -0.0000 -0.0980
vn 1.0000 -0.0000 -0.0000
vn -0.9952 -0.0000 0.0980
vn 0.9569 -0.0000 -0.2903
vn -0.0000 -0.0000 -1.0000
vn -0.9569 -0.0000 0.2903
vn 0.8819 -0.0000 -0.4714
vn -0.0980 -0.0000 -0.9952
vn -0.8819 -0.0000 0.4714
vn 0.7730 -0.0000 -0.6344
vn -0.2903 -0.0000 -0.9569
vn -0.7730 -0.0000 0.6344
vn 0.6344 -0.0000 -0.7730
vn -0.4714 -0.0000 -0.8819
vn -0.6344 -0.0000 0.7730
vn 0.4714 -0.0000 -0.8819
vn -0.6344 -0.0000 -0.7730
vn -0.4714 -0.0000 0.8819
vn 0.2903 -0.0000 -0.9569
vn -0.2903 -0.0000 0.9569
vn -0.0980 -0.0000 0.9952
vn 0.0980 -0.0000 0.9952
vn 0.2903 -0.0000 0.9569
vn 0.4714 -0.0000 0.8819
vn 0.6344 -0.0000 0.7730
vn 0.7730 -0.0000 0.6344
vt 0.000000 0.000000
vt 1.000000 0.000000
vt 1.000000 1.000000
vt 0.000000 1.000000
s 0
f 2/1/1 3/1/1 4/1/1 5/1/1 6/1/1 7/1/1 8/1/1 9/1/1 10/1/1 11/1/1 12/1/1 13/1/1 14/1/1 15/1/1 16/1/1 17/1/1 18/1/1 19/1/1 20/1/1 21/1/1 22/1/1 23/1/1 24/1/1 25/1/1 26/1/1 27/1/1 28/1/1 29/1/1 30/1/1 31/1/1 32/1/1 1/1/1
f 33/1/1 34/2/1 36/3/1 35/4/1
f 38/1/1 39/1/1 40/1/1 41/1/1 42/1/1 43/1/1 44/1/1 45/1/1 46/1/1 47/1/1 48/1/1 49/1/1 50/1/1 51/1/1 52/1/1 53/1/1 54/1/1 55/1/1 56/1/1 57/1/1 58/1/1 59/1/1 60/1/1 61/1/1 62/1/1 63/1/1 64/1/1 65/1/1 66/1/1 67/1/1 68/1/1 37/1/1
f 70/1/2 69/1/2 100/1/2 99/1/2 98/1/2 97/1/2 96/1/2 95/1/2 94/1/2 93/1/2 92/1/2 91/1/2 90/1/2 89/1/2 88/1/2 87/1/2 86/1/2 85/1/2 84/1/2 83/1/2 82/1/2 81/1/2 80/1/2 79/1/2 78/1/2 77/1/2 76/1/2 75/1/2 74/1/2 73/1/2 72/1/2 71/1/2
f 101/1/2 103/4/2 104/3/2 102/2/2
f 106/1/2 105/1/2 136/1/2 135/1/2 134/1/2 133/1/2 132/1/2 131/1/2 130/1/2 129/1/2 128/1/2 127/1/2 126/1/2 125/1/2 124/1/2 123/1/2 122/1/2 121/1/2 120/1/2 119/1/2 118/1/2 117/1/2 116/1/2 115/1/2 114/1/2 113/1/2 112/1/2 111/1/2 110/1/2 109/1/2 108/1/2 107/1/2
f 5/1/3 73/1/3 74/1/3 6/1/3
f 58/1/4 126/1/4 127/1/4 59/1/4
f 32/1/5 100/1/5 69/1/5 1/1/5
f 6/1/6 74/1/6 75/1/6 7/1/6
f 59/1/7 127/1/7 128/1/7 60/1/7
f 35/4/8 103/4/8 101/1/8 33/1/8
f 7/1/9 75/1/9 76/1/9 8/1/9
f 60/1/10 128/1/10 129/1/10 61/1/10
f 33/1/11 101/1/11 102/2/11 34/2/11
f 8/1/12 76/1/12 77/1/12 9/1/12
f 61/1/13 129/1/13 130/1/13 62/1/13
f 34/2/14 102/2/14 104/3/14 36/3/14
f 9/1/15 77/1/15 78/1/15 10/1/15
f 62/1/16 130/1/16 131/1/16 63/1/16
f 36/3/17 104/3/17 103/4/17 35/4/17
f 10/1/18 78/1/18 79/1/18 11/1/18
f 63/1/19 131/1/19 132/1/19 64/1/19
f 37/1/20 105/1/20 106/1/20 38/1/20
f 11/1/21 79/1/21 80/1/21 12/1/21
f 64/1/22 132/1/22 133/1/22 65/1/22
f 38/1/23 106/1/23 107/1/23 39/1/23
f 12/1/24 80/1/24 81/1/24 13/1/24
f 65/1/25 133/1/25 134/1/25 66/1/25
f 39/1/26 107/1/26 108/1/26 40/1/26
f 13/1/27 81/1/27 82/1/27 14/1/27
f 66/1/28 134/1/28 135/1/28 67/1/28
f 40/1/29 108/1/29 109/1/29 41/1/29
f 14/1/30 82/1/30 83/1/30 15/1/30
f 67/1/31 135/1/31 136/1/31 68/1/31
f 41/1/3 109/1/3 110/1/3 42/1/3
f 15/1/32 83/1/32 84/1/32 16/1/32
f 68/1/5 136/1/5 105/1/5 37/1/5
f 42/1/6 110/1/6 111/1/6 43/1/6
f 16/1/33 84/1/33 85/1/33 17/1/33
f 43/1/9 111/1/9 112/1/9 44/1/9
f 17/1/34 85/1/34 86/1/34 18/1/34
f 44/1/12 112/1/12 113/1/12 45/1/12
f 18/1/35 86/1/35 87/1/35 19/1/35
f 45/1/15 113/1/15 114/1/15 46/1/15
f 19/1/36 87/1/36 88/1/36 20/1/36
f 46/1/18 114/1/18 115/1/18 47/1/18
f 20/1/37 88/1/37 89/1/37 21/1/37
f 47/1/21 115/1/21 116/1/21 48/1/21
f 21/1/38 89/1/38 90/1/38 22/1/38
f 48/1/24 116/1/24 117/1/24 49/1/24
f 22/1/4 90/1/4 91/1/4 23/1/4
f 49/1/27 117/1/27 118/1/27 50/1/27
f 23/1/7 91/1/7 92/1/7 24/1/7
f 50/1/30 118/1/30 119/1/30 51/1/30
f 24/1/10 92/1/10 93/1/10 25/1/10
f 51/1/32 119/1/32 120/1/32 52/1/32
f 25/1/13 93/1/13 94/1/13 26/1/13
f 52/1/33 120/1/33 121/1/33 53/1/33
f 26/1/16 94/1/16 95/1/16 27/1/16
f 53/1/34 121/1/34 122/1/34 54/1/34
f 27/1/19 95/1/19 96/1/19 28/1/19
f 1/1/20 69/1/20 70/1/20 2/1/20
f 54/1/35 122/1/35 123/1/35 55/1/35
f 28/1/22 96/1/22 97/1/22 29/1/22
f 2/1/23 70/1/23 71/1/23 3/1/23
f 55/1/36 123/1/36 124/1/36 56/1/36
f 29/1/25 97/1/25 98/1/25 30/1/25
f 3/1/26 71/1/26 72/1/26 4/1/26
f 56/1/37 124/1/37 125/1/37 57/1/37
f 30/1/28 98/1/28 99/1/28 31/1/28
f 4/1/29 72/1/29 73/1/29 5/1/29
f 57/1/38 125/1/38 126/1/38 58/1/38
f 31/1/31 99/1/31 100/1/31 32/1/31
