# Blender 5.0.0
# www.blender.org
o Circle
v -0.000000 0.000000 -0.063519
v -0.012392 0.000000 -0.062298
v -0.024308 0.000000 -0.058684
v -0.035289 0.000000 -0.052814
v -0.044915 0.000000 -0.044915
v -0.052814 0.000000 -0.035289
v -0.058684 0.000000 -0.024308
v -0.062298 0.000000 -0.012392
v -0.063519 0.000000 -0.000000
v -0.062298 0.000000 0.012392
v -0.058684 0.000000 0.024308
v -0.052814 0.000000 0.035289
v -0.044915 0.000000 0.044915
v -0.035289 0.000000 0.052814
v -0.024308 0.000000 0.058684
v -0.012392 0.000000 0.062298
v -0.000000 0.000000 0.063519
v 0.012392 0.000000 0.062298
v 0.024308 0.000000 0.058684
v 0.035289 0.000000 0.052814
v 0.044915 0.000000 0.044915
v 0.052814 0.000000 0.035289
v 0.058684 0.000000 0.024308
v 0.062298 0.000000 0.012392
v 0.063519 0.000000 -0.000000
v 0.062298 0.000000 -0.012392
v 0.058684 0.000000 -0.024308
v 0.052814 0.000000 -0.035289
v 0.044915 0.000000 -0.044915
v 0.035289 0.000000 -0.052814
v 0.024308 0.000000 -0.058684
v 0.012392 0.000000 -0.062298
v -0.030468 -0.048452 -0.047657
v 0.030468 -0.048452 -0.047657
v -0.030468 -0.048452 -0.875243
v 0.030468 -0.048452 -0.875243
v -0.000000 0.000000 -1.144412
v -0.028173 0.000000 -1.141637
v -0.055264 0.000000 -1.133419
v -0.080231 0.000000 -1.120074
v -0.102114 0.000000 -1.102114
v -0.120074 0.000000 -1.080231
v -0.133419 0.000000 -1.055264
v -0.141637 0.000000 -1.028173
v -0.144412 0.000000 -1.000000
v -0.141637 0.000000 -0.971827
v -0.133419 0.000000 -0.944736
v -0.120074 0.000000 -0.919769
v -0.102114 0.000000 -0.897886
v -0.080231 0.000000 -0.879926
v -0.055264 0.000000 -0.866581
v -0.028173 0.000000 -0.858363
v -0.000000 0.000000 -0.855589
v 0.028173 0.000000 -0.858363
v 0.055264 0.000000 -0.866581
v 0.080231 0.000000 -0.879926
v 0.102114 0.000000 -0.897886
v 0.120074 0.000000 -0.919769
v 0.133419 0.000000 -0.944736
v 0.141637 0.000000 -0.971827
v 0.144411 0.000000 -1.000000
v 0.141637 0.000000 -1.028173
v 0.133419 0.000000 -1.055264
v 0.120074 0.000000 -1.080231
v 0.102114 0.000000 -1.102114
v 0.080231 0.000000 -1.120074
v 0.055264 0.000000 -1.133419
v 0.028173 0.000000 -1.141637
v -0.022436 0.000000 -1.112792
v -0.000000 0.000000 -1.115002
v -0.044009 0.000000 -1.106248
v -0.063891 0.000000 -1.095620
v -0.081318 0.000000 -1.081318
v -0.095620 0.000000 -1.063892
v -0.106247 0.000000 -1.044009
v -0.112792 0.000000 -1.022436
v -0.115001 0.000000 -1.000000
v -0.112792 0.000000 -0.977564
v -0.106248 0.000000 -0.955991
v -0.095620 0.000000 -0.936109
v -0.081318 0.000000 -0.918682
v -0.063891 0.000000 -0.904380
v -0.044009 0.000000 -0.893753
v -0.022436 0.000000 -0.887208
v -0.000000 0.000000 -0.884999
v 0.022436 0.000000 -0.887208
v 0.044009 0.000000 -0.893753
v 0.063891 0.000000 -0.904380
v 0.081318 0.000000 -0.918682
v 0.095620 0.000000 -0.936109
v 0.106247 0.000000 -0.955991
v 0.112792 0.000000 -0.977564
v 0.115001 0.000000 -1.000000
v 0.112792 0.000000 -1.022436
v 0.106247 0.000000 -1.044009
v 0.095620 0.000000 -1.063892
v 0.081318 0.000000 -1.081318
v 0.063891 0.000000 -1.095620
v 0.044009 0.000000 -1.106248
v 0.022436 0.000000 -1.112792
v -0.008011 0.000000 -0.040272
v -0.000000 0.000000 -0.041061
v -0.015713 0.000000 -0.037935
v -0.022812 0.000000 -0.034141
v -0.029034 0.000000 -0.029034
v -0.034141 0.000000 -0.022812
v -0.037935 0.000000 -0.015713
v -0.040272 0.000000 -0.008011
v -0.041061 0.000000 -0.000000
v -0.040272 0.000000 0.008011
v -0.037935 0.000000 0.015713
v -0.034141 0.000000 0.022812
v -0.029034 0.000000 0.029034
v -0.022812 0.000000 0.034141
v -0.015713 0.000000 0.037935
v -0.008011 0.000000 0.040272
v -0.000000 0.000000 0.041061
v 0.008011 0.000000 0.040272
v 0.015713 0.000000 0.037935
v 0.022812 0.000000 0.034141
v 0.029034 0.000000 0.029034
v 0.034141 0.000000 0.022812
v 0.037935 0.000000 0.015713
v 0.040272 0.000000 0.008011
v 0.041061 0.000000 -0.000000
v 0.040272 0.000000 -0.008011
v 0.037935 0.000000 -0.015713
v 0.034141 0.000000 -0.022812
v 0.029034 0.000000 -0.029034
v 0.022812 0.000000 -0.034141
v 0.015713 0.000000 -0.037935
v 0.008011 0.000000 -0.040272
vn -0.0000 1.0000 -0.0000
vt 0.000000 0.000000
vt 1.000000 0.000000
vt 1.000000 1.000000
vt 0.000000 1.000000
s 0
f 101/1/1 103/1/1 104/1/1 105/1/1 106/1/1 107/1/1 108/1/1 109/1/1 110/1/1 111/1/1 112/1/1 113/1/1 114/1/1 115/1/1 116/1/1 117/1/1 118/1/1 119/1/1 120/1/1 121/1/1 122/1/1 123/1/1 124/1/1 125/1/1 126/1/1 127/1/1 128/1/1 129/1/1 130/1/1 131/1/1 132/1/1 102/1/1
f 33/1/1 34/2/1 36/3/1 35/4/1
f 69/1/1 70/1/1 37/1/1 38/1/1
f 71/1/1 69/1/1 38/1/1 39/1/1
f 72/1/1 71/1/1 39/1/1 40/1/1
f 73/1/1 72/1/1 40/1/1 41/1/1
f 74/1/1 73/1/1 41/1/1 42/1/1
f 75/1/1 74/1/1 42/1/1 43/1/1
f 76/1/1 75/1/1 43/1/1 44/1/1
f 77/1/1 76/1/1 44/1/1 45/1/1
f 78/1/1 77/1/1 45/1/1 46/1/1
f 79/1/1 78/1/1 46/1/1 47/1/1
f 80/1/1 79/1/1 47/1/1 48/1/1
f 81/1/1 80/1/1 48/1/1 49/1/1
f 82/1/1 81/1/1 49/1/1 50/1/1
f 83/1/1 82/1/1 50/1/1 51/1/1
f 84/1/1 83/1/1 51/1/1 52/1/1
f 85/1/1 84/1/1 52/1/1 53/1/1
f 86/1/1 85/1/1 53/1/1 54/1/1
f 87/1/1 86/1/1 54/1/1 55/1/1
f 88/1/1 87/1/1 55/1/1 56/1/1
f 89/1/1 88/1/1 56/1/1 57/1/1
f 90/1/1 89/1/1 57/1/1 58/1/1
f 91/1/1 90/1/1 58/1/1 59/1/1
f 92/1/1 91/1/1 59/1/1 60/1/1
f 93/1/1 92/1/1 60/1/1 61/1/1
f 94/1/1 93/1/1 61/1/1 62/1/1
f 95/1/1 94/1/1 62/1/1 63/1/1
f 96/1/1 95/1/1 63/1/1 64/1/1
f 97/1/1 96/1/1 64/1/1 65/1/1
f 98/1/1 97/1/1 65/1/1 66/1/1
f 99/1/1 98/1/1 66/1/1 67/1/1
f 100/1/1 99/1/1 67/1/1 68/1/1
f 70/1/1 100/1/1 68/1/1 37/1/1
f 101/1/1 102/1/1 1/1/1 2/1/1
f 103/1/1 101/1/1 2/1/1 3/1/1
f 104/1/1 103/1/1 3/1/1 4/1/1
f 105/1/1 104/1/1 4/1/1 5/1/1
f 106/1/1 105/1/1 5/1/1 6/1/1
f 107/1/1 106/1/1 6/1/1 7/1/1
f 108/1/1 107/1/1 7/1/1 8/1/1
f 109/1/1 108/1/1 8/1/1 9/1/1
f 110/1/1 109/1/1 9/1/1 10/1/1
f 111/1/1 110/1/1 10/1/1 11/1/1
f 112/1/1 111/1/1 11/1/1 12/1/1
f 113/1/1 112/1/1 12/1/1 13/1/1
f 114/1/1 113/1/1 13/1/1 14/1/1
f 115/1/1 114/1/1 14/1/1 15/1/1
f 116/1/1 115/1/1 15/1/1 16/1/1
f 117/1/1 116/1/1 16/1/1 17/1/1
f 118/1/1 117/1/1 17/1/1 18/1/1
f 119/1/1 118/1/1 18/1/1 19/1/1
f 120/1/1 119/1/1 19/1/1 20/1/1
f 121/1/1 120/1/1 20/1/1 21/1/1
f 122/1/1 121/1/1 21/1/1 22/1/1
f 123/1/1 122/1/1 22/1/1 23/1/1
f 124/1/1 123/1/1 23/1/1 24/1/1
f 125/1/1 124/1/1 24/1/1 25/1/1
f 126/1/1 125/1/1 25/1/1 26/1/1
f 127/1/1 126/1/1 26/1/1 27/1/1
f 128/1/1 127/1/1 27/1/1 28/1/1
f 129/1/1 128/1/1 28/1/1 29/1/1
f 130/1/1 129/1/1 29/1/1 30/1/1
f 131/1/1 130/1/1 30/1/1 31/1/1
f 132/1/1 131/1/1 31/1/1 32/1/1
f 102/1/1 132/1/1 32/1/1 1/1/1
